<svg id="Layer_1" data-name="Layer 1" xmlns="http://www.w3.org/2000/svg" viewBox="0 0 107.54 30.73"><defs><style>.cls-1{fill:#fff;}.cls-2{font-size:10px;fill:#231f20;font-family:Menlo-Regular, Menlo;}</style></defs><title>truck</title><path class="cls-1" d="M252.05,380.4v25.52h3.55a3.85,3.85,0,1,0,7.45.2l1.87-.07a3.79,3.79,0,1,0,7.34.07l32.27-.14,4.14-4.93,17.6.07V380.4Z" transform="translate(-252.04 -380.4)"/><path class="cls-1" d="M308.58,403.44v4.24a3.7,3.7,0,0,0,7.36-.53h1.44a3.81,3.81,0,1,0,7.62.14h23.31a3.94,3.94,0,0,0,7.88,0h3.39v-3.85h-.91L357,396.86l-6.71-1.75c-.2-.56-.44-1.13-.71-1.7-2.73-5.64-7.82-8.7-11.34-10.29h-10v20.32Z" transform="translate(-252.04 -380.4)"/><text class="cls-2" transform="translate(22.06 17.35)">Water</text></svg>