<svg id="Layer_1" data-name="Layer 1" xmlns="http://www.w3.org/2000/svg" viewBox="0 0 35.26 114.82"><defs><style>.cls-1{fill:#bfe5f1;}.cls-2{fill:#3ebeee;}</style></defs><title>waterbottle</title><path class="cls-1" d="M31.77,27a1,1,0,0,1,.82-.86H44.77a1.05,1.05,0,0,1,1,.92,1,1,0,0,1-1.27.76v.89a92.2,92.2,0,0,0,6.94,17.62,35.48,35.48,0,0,1,3.32,8A37.73,37.73,0,0,1,56,61q.24,32,.49,64.07a7.47,7.47,0,0,1-5.36,6c-3.69.82-6.27-2.34-6.4-2.51a8.65,8.65,0,0,1-5.5,2.51,8.58,8.58,0,0,1-6.33-2.59c-.16.2-2.62,3.27-6.2,2.59a7.39,7.39,0,0,1-5.48-6l.45-63a31.2,31.2,0,0,1,1.26-9.14,29.65,29.65,0,0,1,3.1-7,79.63,79.63,0,0,0,7-17.06l0-1A1,1,0,0,1,31.77,27Z" transform="translate(-21.19 -16.37)"/><path class="cls-2" d="M31.82,24.28l0-7.44a48.54,48.54,0,0,1,7-.47,50,50,0,0,1,6.86.5l0,7.32h-1l.05,1.89H32.59V24.32Z" transform="translate(-21.19 -16.37)"/></svg>