<svg id="Layer_1" data-name="Layer 1" xmlns="http://www.w3.org/2000/svg" viewBox="0 0 35.26 114.8"><defs><style>.cls-1{fill:#bfe5f1;}.cls-2{fill:#3ebeee;}.cls-3{fill:#3c2415;}</style></defs><title>waterbottleoil</title><path class="cls-1" d="M388.64,258.37a.84.84,0,0,1,.24-.52,1.13,1.13,0,0,1,.58-.34h12.18a1.06,1.06,0,0,1,1,.92,1,1,0,0,1-1.27.77v.88a90.79,90.79,0,0,0,6.95,17.62,36.28,36.28,0,0,1,3.31,8,42.86,42.86,0,0,1,1.22,6.73c.44,4.59.66,17.56.27,34.95q-1.2,14.56-2.41,29.11h-28l-4.47-29.1c0-16.66.21-29,.24-33.94a37.56,37.56,0,0,1,1.26-9.15,29.85,29.85,0,0,1,3.1-7,79.4,79.4,0,0,0,7-17.06l0-1C389.13,259.18,388.64,258.76,388.64,258.37Z" transform="translate(-378.06 -247.79)"/><path class="cls-2" d="M388.69,255.71l0-7.44a50,50,0,0,1,13.82,0l0,7.32-1,0,.05,1.88H389.46v-1.77Z" transform="translate(-378.06 -247.79)"/><path class="cls-3" d="M378.27,327.39l-.21,29.1a6.46,6.46,0,0,0,11.68,3.4,8.49,8.49,0,0,0,6.34,2.58,8.35,8.35,0,0,0,5.49-2.5,7.13,7.13,0,0,0,5.89,2.59,6.92,6.92,0,0,0,5.87-6.07l-.22-29Z" transform="translate(-378.06 -247.79)"/></svg>