<?xml version="1.0" encoding="utf-8"?>
<!-- Generator: Adobe Illustrator 24.0.2, SVG Export Plug-In . SVG Version: 6.00 Build 0)  -->
<svg version="1.1" id="Layer_1" xmlns="http://www.w3.org/2000/svg" xmlns:xlink="http://www.w3.org/1999/xlink" x="0px" y="0px"
	 viewBox="0 0 489.76 489.76" style="enable-background:new 0 0 489.76 489.76;" xml:space="preserve">
<style type="text/css">
	.st0{fill:#FFFFFF;}
	.st1{fill:#7C1615;}
	.st2{fill:#435656;}
	.st3{fill:#4B5F5D;}
	.st4{fill:#0C1414;}
	.st5{fill:#1C292C;}
	.st6{fill:#384744;}
</style>
<rect class="st0" width="489.76" height="489.76"/>
<path class="st1" d="M216.94,85.72c-0.13-3.86,1.39-6.66,2.25-8.48c7.42-15.71,0.37-32.76,9.23-40.37
	c6.13-5.26,18.77-5.06,24.61,0.55c8.74,8.39,0.61,27.64,9.3,39.92c0.79,1.12,2.51,3.29,2.92,6.56c0.27,2.15-0.08,4.39-3.65,13.12
	c-1.1,2.68-2.06,4.91-2.75,6.48c0.79,20.26,1.59,40.52,2.39,60.78c-0.02,1.7,0.16,4.51,1.46,7.66c0.99,2.4,2.29,4.15,3.28,5.29
	c-15.01,0.3-30.02,0.61-45.02,0.91c0.7-1.06,1.67-2.73,2.37-4.92c1.09-3.41,0.96-6.26,0.92-7.29c-0.21-5.09-0.9-28.76-2.01-61.25
	c-0.23-1.4-0.65-3.59-1.43-6.21C218.8,91.77,217.08,89.71,216.94,85.72z"/>
<path class="st1" d="M221.74,247.47c14.99-0.41,29.98-0.81,44.96-1.22c-0.74,2.04-1.45,4.49-1.94,7.29
	c-0.77,4.38-0.74,8.22-0.49,11.18c2.59,56.71,5.18,113.42,7.78,170.13c0.68,12.05-8.89,21.88-19.69,21.84
	c-9.44-0.03-18.09-7.61-19.44-17.96c-2.39-58.41-4.78-116.82-7.17-175.23c-0.01-2.63-0.32-6.17-1.55-10.12
	C223.48,251.07,222.6,249.09,221.74,247.47z"/>
<path class="st2" d="M274.27,230.73c0.01,0.42-0.06,1.67,0.34,1.79c0.25,0.08,0.6-0.32,0.85-0.67c-0.25-6.56-0.5-13.11-0.74-19.67
	c-0.28-0.32-0.66-0.7-0.9-0.6c-0.39,0.16-0.1,1.51-0.09,1.94C273.9,219.26,274.09,224.99,274.27,230.73z"/>
<path class="st3" d="M272.54,191.08c0.1,4.37,0.2,8.73,0.3,13.1c0.89,0.32,2.45,0.73,3.51-0.02c0.7-0.49,1.01-1.36,0.87-6.9
	c-0.13-4.97-0.42-5.82-1.15-6.3C274.97,190.25,273.43,190.72,272.54,191.08z"/>
<path class="st4" d="M213.48,185.85c0.24,16.77,0.49,33.54,0.73,50.31c0.02,1.15,0.23,4.37,2.55,7.41c1.76,2.32,3.9,3.42,4.98,3.89
	c14.99-0.41,29.98-0.81,44.96-1.22c1.18-0.59,3.06-1.73,4.74-3.77c2.49-3.03,3.05-6.26,3.21-7.66c-0.58-16.12-1.17-32.24-1.75-48.36
	c-0.19-1.11-0.71-3.36-2.43-5.59c-1.61-2.09-3.49-3.16-4.5-3.65c-15.01,0.3-30.02,0.61-45.02,0.91c-0.69,0.09-3.15,0.48-5.16,2.61
	C213.85,182.79,213.54,185.14,213.48,185.85z"/>
<path class="st0" d="M224.41,82.08c1.66-3.87,8.37-4.1,16.04-4.37c8.04-0.28,15.83-0.56,17.86,3.65c0.6,1.24,0.71,2.9,0.08,4.26
	c-0.65,1.41-2.49,3.35-18.66,3.73c-11.23,0.26-13.77-0.6-14.96-2.52C223.94,85.46,223.77,83.57,224.41,82.08z"/>
<path class="st5" d="M234.56,39.62c-3.05,4.04-1.06,10.28,2.98,12.2c2.45,1.16,5.39,0.62,7.39-0.78c3.61-2.52,5.18-8.54,1.9-12.15
	C243.64,35.38,237.42,35.84,234.56,39.62z"/>
<circle class="st0" cx="246.29" cy="298.02" r="4.01"/>
<circle class="st0" cx="248.99" cy="378.83" r="4.01"/>
<circle class="st0" cx="248.99" cy="364.73" r="4.01"/>
<circle class="st0" cx="248.21" cy="351.47" r="4.01"/>
<circle class="st0" cx="247.62" cy="337.27" r="4.01"/>
<circle class="st0" cx="247.62" cy="323.78" r="4.01"/>
<circle class="st0" cx="246.91" cy="310.9" r="4.01"/>
<ellipse class="st6" cx="240.5" cy="42.04" rx="3.51" ry="2.44"/>
</svg>
