<svg id="Layer_1" data-name="Layer 1" xmlns="http://www.w3.org/2000/svg" viewBox="0 0 489.76 489.76"><defs><style>.cls-1{fill:#fff;}.cls-2{fill:#eeb052;}.cls-3{fill:#fdde92;}.cls-4{fill:#ffdf65;}.cls-5{font-size:32.69px;letter-spacing:0.04em;}.cls-11,.cls-5,.cls-9{fill:#cf152d;}.cls-12,.cls-5,.cls-9{font-family:AGaramondPro-Regular, Adobe Garamond Pro;}.cls-6{letter-spacing:0.05em;}.cls-7{letter-spacing:0.01em;}.cls-8{letter-spacing:0.09em;}.cls-9{font-size:21.79px;letter-spacing:0.07em;}.cls-10{letter-spacing:0em;}.cls-11{stroke:#cf152d;stroke-width:3px;}.cls-11,.cls-17,.cls-18{stroke-miterlimit:10;}.cls-12{font-size:10.9px;letter-spacing:0.03em;}.cls-13{letter-spacing:0.01em;}.cls-14{letter-spacing:0.03em;}.cls-15{letter-spacing:-0.04em;}.cls-16{letter-spacing:0.02em;}.cls-17,.cls-18{fill:none;stroke-width:0.25px;}.cls-17{stroke:#000;}.cls-18{stroke:#bec0c2;}</style></defs><title>chapstick</title><rect class="cls-1" width="489.76" height="489.76"/><path class="cls-2" d="M202.27,141.92V69.86s45.73-6.24,85.22,0v72.06Z"/><rect class="cls-3" x="202.27" y="141.92" width="85.22" height="261.22"/><path class="cls-4" d="M202.27,418.11s45.8,10.27,85.22,0v-15H202.27Z"/><text class="cls-5" transform="translate(253.87 166.75) rotate(90)">B<tspan class="cls-6" x="21.18" y="0">U</tspan><tspan class="cls-7" x="47.3" y="0">R</tspan><tspan class="cls-8" x="68.65" y="0">T</tspan><tspan class="cls-6" x="93.14" y="0">’S BEES</tspan></text><text class="cls-9" transform="translate(230.08 163.12) rotate(90)">BEES<tspan class="cls-10" x="55.4" y="0">W</tspan><tspan x="76.21" y="0">AX LIP BALM</tspan></text><line class="cls-11" x1="248.8" y1="164.36" x2="248.8" y2="380.93"/><text class="cls-12" transform="translate(217.71 191.44) rotate(90)">with<tspan class="cls-13" x="20.13" y="0"> </tspan><tspan class="cls-14" x="22.98" y="0">VI</tspan><tspan class="cls-15" x="34.62" y="0">T</tspan><tspan x="41.4" y="0">AMIN E &amp; </tspan><tspan class="cls-16" x="96.44" y="0">P</tspan><tspan x="102.59" y="0">EP</tspan><tspan class="cls-16" x="115.52" y="0">P</tspan><tspan x="121.67" y="0">ERMINT</tspan></text><line class="cls-17" x1="202.27" y1="403.13" x2="287.49" y2="403.13"/><line class="cls-18" x1="237.8" y1="403.13" x2="237.8" y2="422.67"/><line class="cls-18" x1="253.11" y1="403.13" x2="253.11" y2="422.67"/><line class="cls-18" x1="244.88" y1="403.13" x2="244.88" y2="422.65"/><line class="cls-18" x1="258.74" y1="403.13" x2="258.74" y2="422.36"/><line class="cls-18" x1="264.11" y1="403.13" x2="264.11" y2="422.01"/><line class="cls-18" x1="268.81" y1="403.13" x2="268.81" y2="421.48"/><line class="cls-18" x1="273.91" y1="403.13" x2="273.91" y2="420.88"/><line class="cls-18" x1="278.61" y1="403.13" x2="278.61" y2="420.07"/><line class="cls-18" x1="282.5" y1="403.13" x2="282.5" y2="419.1"/><line class="cls-18" x1="232.7" y1="403.13" x2="232.7" y2="422.15"/><line class="cls-18" x1="227.34" y1="403.13" x2="227.34" y2="421.69"/><line class="cls-18" x1="222.1" y1="403.13" x2="222.1" y2="421.23"/><line class="cls-18" x1="216.46" y1="403.13" x2="216.46" y2="420.53"/><line class="cls-18" x1="211.63" y1="403.13" x2="211.63" y2="419.81"/><line class="cls-18" x1="207.2" y1="403.13" x2="207.2" y2="418.97"/></svg>