<svg id="Layer_1" data-name="Layer 1" xmlns="http://www.w3.org/2000/svg" viewBox="0 0 489.76 489.76"><defs><style>.cls-1,.cls-5,.cls-9{fill:#fff;}.cls-2{fill:#72cddf;}.cls-3{fill:#101010;}.cls-4{fill:#939598;}.cls-5,.cls-9{font-size:13px;font-family:MyriadPro-Regular, Myriad Pro;}.cls-5{letter-spacing:0.01em;}.cls-6{letter-spacing:-0.01em;}.cls-7{letter-spacing:0em;}.cls-8{letter-spacing:0em;}.cls-10{letter-spacing:-0.02em;}</style></defs><title>hydroflask</title><rect class="cls-1" width="489.76" height="489.76"/><path class="cls-2" d="M185,129.38c.7,1.48,1.46,3.73.65,5.83-1.29,3.35-5.68,4-8.78,5.5-3.74,1.86-8.24,6.39-10.63,18.55l-.33,289.33a14.41,14.41,0,0,0,.71,7.38c2.54,6.6,10.39,10.91,19.8,11l102.11.22c7.33-.52,17.15-2.46,21.56-9.64a17.34,17.34,0,0,0,2.29-9.61l-.63-289.48a17.28,17.28,0,0,0-2.17-9.13A32.44,32.44,0,0,0,296.3,137.7a6,6,0,0,1-3.81-8.47Z"/><path class="cls-3" d="M155.45,72.3a25.62,25.62,0,0,1,9.47-2.43l71.49-.36,3.82-4.31L213.91,37.27a10.49,10.49,0,0,1,.94-2.93c.66-1.35,1.54-2.41,4.64-5.14,1.09-.95,2.48-2.15,4.15-3.49l34.67,32.35a7.89,7.89,0,0,0,2.49-1.82c1.24-1.35,1.56-2.68,2.32-5,.45-1.33,1.13-3.25,2.11-5.58l6.63,2.65q-3.75,10.19-7.52,20.35L286.68,70c.78,2.61,1.89,6.44,3.15,11.11,1.36,5,2,7.57,2.33,9.13,1.18,6.56.27,9.23.49,17.92.08,2.85,1.13,9.8,1.83,15.09l-106.16.66,4.3-3.15H166.57a27.41,27.41,0,0,1-17.75-7.13c-1.63-1.51-8.85-8.61-8.46-19.41C140.75,83.62,148.24,75.74,155.45,72.3Z"/><path class="cls-1" d="M167.4,76.48c8.7-.71,13-1.07,16.24,1.54,6,4.88,4.42,16.84.85,24.17-1.24,2.55-3.79,7.79-9.62,10.45-7.82,3.57-19.5,1.56-25.05-7.46-5.83-9.45-1.7-21.37,4.81-25.88C157.53,77.28,160.82,77,167.4,76.48Z"/><polygon class="cls-1" points="239.06 69.85 241.89 67.69 243.72 69.85 239.06 69.85"/><path class="cls-4" d="M182.25,125.49c.42-1.16,2-1.51,2.13-1.55l110.1-.68a3.31,3.31,0,0,1,1.33,2.16c.15,1.56-1.17,3.28-3.32,3.81L185,129.38C182.8,128.7,181.79,126.75,182.25,125.49Z"/><path class="cls-1" d="M223.09,197.14c-.68,1.65,1.48,2.6,4.48,8,.82,1.49,1.93,3.73,3.41,3.94a1.76,1.76,0,0,0,1.4-.29,1.44,1.44,0,0,0,.39-.94,8.7,8.7,0,0,0-1.27-4.54c-3.86-6.15-3.86-7.79-5.48-7.9A3.12,3.12,0,0,0,223.09,197.14Z"/><path class="cls-1" d="M229.67,191.61a3.55,3.55,0,0,1,4.15-.72c1.46.8,1.11,2.44,2.26,7.8,1,4.53,1.9,6.47.83,7.47a2.2,2.2,0,0,1-2.1.38c-1.48-.48-1.72-2.52-2.62-5.65C230.35,194.57,228.61,193,229.67,191.61Z"/><path class="cls-1" d="M238.59,188.7a2.88,2.88,0,0,1,3.14-.42,2.76,2.76,0,0,1,1.21,1.84c0,1.34.33,12.43-.93,14.46-.2.31-.69,1.1-1.39,1.13a1.49,1.49,0,0,1-1-.44c-1.38-1.24-2-12.82-2.13-14.69A3.24,3.24,0,0,1,238.59,188.7Z"/><path class="cls-1" d="M247.36,190.73a2.81,2.81,0,0,1,2.82.88c1.21,1.43-.31,3.18-1.87,9.79-.66,2.84-.88,4.63-2.18,5.09a2.2,2.2,0,0,1-2.14-.44c-1-.94-.43-2.66.44-6.42C246,193,246,191.18,247.36,190.73Z"/><path class="cls-1" d="M254.44,195.54a2.9,2.9,0,0,1,2.66,1.6c.77,1.73-1.53,2.91-4.94,9-.82,1.47-1.54,2.92-2.6,2.91a2,2,0,0,1-1.65-1.35c-.48-1.24.41-2.54,1.31-4C252.76,197.92,252.72,195.67,254.44,195.54Z"/><path class="cls-1" d="M235.09,210.86c1.22.35,1.09,1.61,2.65,2.65a4.66,4.66,0,0,0,2.82.82,5.41,5.41,0,0,0,3.15-1.48c1.19-1,1.2-1.71,2-1.88a2.27,2.27,0,0,1,2.43,1.27c.51,1.66-2.54,4.76-6,5.58a8.22,8.22,0,0,1-6.06-.88c-2.23-1.38-4.05-4.19-3.31-5.42A2.16,2.16,0,0,1,235.09,210.86Z"/><path class="cls-1" d="M222.48,204.22c5.15-.11,5.94,13,14.1,15.76,4.12,1.38,8.18-.54,8.77-.83,7.71-3.78,7.79-14.86,12.58-15a3.8,3.8,0,0,1,3.2,1.59c2.66,4.25-9.91,11-10,21.17-.09,10.37,12.9,17.41,10.16,21.8a3.93,3.93,0,0,1-3.32,1.66c-5.31-.19-5.53-13.35-13.47-16.21-3.88-1.4-7.76.32-8.43.62-8.16,3.6-8.42,15.1-13.27,15.09a3.77,3.77,0,0,1-3.31-2.14c-1-2.39,2.49-5.07,6.3-11.13,2.56-4.07,3.84-6.11,4.15-8.13,1.5-9.8-13-18-10.46-22.56A3.66,3.66,0,0,1,222.48,204.22Z"/><text class="cls-5" transform="translate(210.2 428.02)">H<tspan class="cls-6" x="8.59" y="0">y</tspan><tspan class="cls-7" x="14.59" y="0">d</tspan><tspan class="cls-6" x="21.92" y="0">r</tspan><tspan class="cls-8" x="26.04" y="0">o</tspan></text><text class="cls-9" transform="translate(244.88 428.27)"><tspan class="cls-10">F</tspan><tspan x="6.11" y="0">lask</tspan></text></svg>