<svg id="Layer_1" data-name="Layer 1" xmlns="http://www.w3.org/2000/svg" viewBox="0 0 489.76 489.76"><defs><style>.cls-1,.cls-10{fill:#fff;}.cls-2{fill:#1c1826;}.cls-3{fill:#534058;}.cls-4{fill:#d2bebb;}.cls-5{fill:#18151d;}.cls-6{fill:#695e6c;}.cls-7,.cls-8{fill:#231f20;}.cls-7{stroke:#231f20;stroke-miterlimit:10;}.cls-9{fill:#55545d;}.cls-10{font-size:4.62px;font-family:HelveticaNeue-Light, Helvetica Neue;font-weight:300;}.cls-11{letter-spacing:-0.02em;}.cls-12{fill:#622718;}</style></defs><title>macbook</title><rect class="cls-1" width="489.76" height="489.76"/><path class="cls-2" d="M131.72,315.15,136,110.65a8.82,8.82,0,0,1,3.76-5.54,8.54,8.54,0,0,1,4.46-1.29l295.12.6a7.15,7.15,0,0,1,5.14,2,7.35,7.35,0,0,1,2,6.14q-3.06,110.13-6.13,220.27Z"/><path class="cls-3" d="M28.63,345.77l103.09-30.62,308.62,17.66L373.1,369.76Z"/><path class="cls-4" d="M28.63,352.41l346.51,26,65-39.09.19-6.54L373.1,369.76l-344.47-24Z"/><polygon class="cls-5" points="108.47 332.81 150.53 319.26 397.9 335.09 369.17 351.75 108.47 332.81"/><path class="cls-6" d="M114.41,351.81l44.09-15.36,150,10.89-35.09,15.47Z"/><polygon class="cls-1" points="142.59 115.8 439.44 117.44 434.15 319.26 138.08 303.2 142.59 115.8"/><circle class="cls-7" cx="284.7" cy="110.59" r="1.51"/><circle class="cls-8" cx="426.18" cy="344.42" r="0.98"/><circle class="cls-8" cx="429.79" cy="342.48" r="0.96"/><circle class="cls-8" cx="433.07" cy="340.35" r="0.83"/><polygon class="cls-9" points="131.93 307.95 131.72 315.15 440.34 332.81 440.34 325.64 131.93 307.95"/><text class="cls-10" transform="translate(253.19 320.38) rotate(3.95)">MacBook P<tspan class="cls-11" x="23.33" y="0">r</tspan><tspan x="24.71" y="0">o</tspan></text><circle class="cls-12" cx="284.7" cy="110.59" r="0.96"/></svg>