<svg id="Layer_1" data-name="Layer 1" xmlns="http://www.w3.org/2000/svg" viewBox="0 0 489.76 489.76"><defs><style>.cls-1{fill:#fff;}.cls-2{fill:#dadde5;}.cls-3{fill:#353534;}.cls-4{fill:#909398;}.cls-5{fill:#4f5250;}.cls-6{fill:#151512;}.cls-7{fill:#773f03;}.cls-8{fill:#1e201e;}</style></defs><title>pen</title><rect class="cls-1" width="489.76" height="489.76"/><polygon class="cls-2" points="84.8 338.01 42.73 377.21 49.12 388.23 103.74 366.64 84.8 338.01"/><path class="cls-3" d="M83.87,336.69q56-35.9,111.94-71.81l20.92,30.84L105.25,369.07Z"/><path class="cls-4" d="M378.24,165.14l9.33,19.53L216.73,295.72l-20.92-30.84,100.87-62.72a19.55,19.55,0,0,0,9.4,11.37Z"/><path class="cls-5" d="M198.37,268.66l100.54-61.27a24.36,24.36,0,0,0,7.17,6.14l8.7-5.83,7.85,10.5L212.38,289.3Z"/><path class="cls-6" d="M204.38,277.45l110.4-69.75,4.24,5.67L209.36,284.85Z"/><path class="cls-7" d="M345.08,187.38q3.68,5,7.34,10L322.63,218.2l-7.85-10.5Z"/><path class="cls-8" d="M296.22,199.21a21.79,21.79,0,0,1,4.11-4.6,24.24,24.24,0,0,1,11.37-5.08c11.33-2.21,31.37-25.86,57.42-44.42,12.57-9,35.15-24.67,48.69-16.94a15.45,15.45,0,0,1,2.45,1.74l25-12.46c.23-.12,4.05-2,7.51.11a8,8,0,0,1,3.16,9.22l-23.05,19.34.58,8.47-45.9,30.08q-5.42-9.25-10.85-18.51l-70.64,47.37a15.88,15.88,0,0,1-8.47-7.76A14.88,14.88,0,0,1,296.22,199.21Z"/></svg>