<?xml version="1.0" encoding="utf-8"?>
<!-- Generator: Adobe Illustrator 22.0.1, SVG Export Plug-In . SVG Version: 6.00 Build 0)  -->
<svg version="1.1" id="Layer_1" xmlns="http://www.w3.org/2000/svg" xmlns:xlink="http://www.w3.org/1999/xlink" x="0px" y="0px"
	 viewBox="0 0 556.5 137.3" style="enable-background:new 0 0 556.5 137.3;" xml:space="preserve">
<style type="text/css">
	.st0{font-family:'Avenir-Light';}
	.st1{font-size:125.8362px;}
	.st2{stroke:#F8D8C3;stroke-width:16;stroke-miterlimit:10;}
</style>
<g>
	<g>
		<path d="M7.6,105.7l2.1-3c3,2.2,6.6,3.6,11.4,3.6c4.4,0,6.6-1.8,6.6-4.1c0-2-1-3.4-8.2-4.9c-6.9-1.4-10.3-3.7-10.3-7.7
			c0-4.2,3.7-7.5,11-7.5c4,0,8,1.6,10.6,3.4l-2.2,2.9c-2.4-1.7-5.5-2.8-8.8-2.8c-4.4,0-6.1,1.8-6.1,3.8c0,2.3,2.3,3.3,7.7,4.4
			c8.7,1.9,10.8,4.1,10.8,8.1c0,4.3-4.2,7.9-11.7,7.9C15.4,109.8,10.8,107.9,7.6,105.7z"/>
		<path d="M39.6,96c0-8.8,6.1-13.9,13-13.9s13,5,13,13.9c0,8.7-6.1,13.8-13,13.8S39.6,104.7,39.6,96z M61,96
			c0-6.1-3.4-10.1-8.4-10.1s-8.4,4.1-8.4,10.1c0,6,3.4,10,8.4,10S61,102,61,96z"/>
		<path d="M72,82.8h3.6l0.4,3.5h0.1c1.4-2.4,3-4.1,6-4.1c2.6,0,4.2,1.5,5,4.6c1.5-2.8,3.1-4.6,6.2-4.6c3.7,0,5.9,2.9,5.9,8.1v18.9
			h-4.4V90.6c0-3-0.9-4.6-2.8-4.6C90,86,89,87.3,87.6,90v19.1h-4.1V90.6c0-3-0.8-4.6-2.7-4.6c-1.8,0-3,1.4-4.3,4.1v19.1H72V82.8z"/>
		<path d="M105.1,95.9c0-8.6,6.4-13.8,13.4-13.8c7.6,0,12,4.9,12,12.4c0,1-0.1,2-0.2,2.7h-22.3v-3.5h19.6l-1.1,1.2
			c0-6.2-3.1-9.3-7.9-9.3c-4.9,0-9.1,3.7-9.1,10.2c0,6.8,4.4,10.3,10.3,10.3c3.1,0,5.6-1,8-2.5l1.6,2.9c-2.6,1.7-6,3.1-10.2,3.1
			C111.4,109.8,105.1,104.7,105.1,95.9z"/>
		<path d="M145.1,98.9V86.4h-7.5V83l7.6-0.3l0.6-8.5h3.7v8.5h12.9v3.6h-12.9v12.5c0,4.7,1.6,7.2,6.7,7.2c2.4,0,4.4-0.5,6.3-1.2
			l1,3.3c-2.4,0.9-4.9,1.6-8.2,1.6C147.6,109.8,145.1,105.4,145.1,98.9z"/>
		<path d="M171.5,70.5h4.5V81l-0.3,6.2h0.2c2.7-2.9,5.7-5.2,9.8-5.2c6.2,0,9.1,3.7,9.1,10.6v16.4h-4.5V93.4c0-5-1.7-7.3-6-7.3
			c-3.1,0-5.3,1.6-8.3,4.7v18.4h-4.5V70.5z"/>
		<path d="M216.1,86.4h-12.2v-3.6h16.7v26.4h-4.5V86.4z M214.3,73.8c0-2.1,1.5-3.5,3.6-3.5c2.1,0,3.6,1.4,3.6,3.5
			c0,2.1-1.5,3.5-3.6,3.5C215.8,77.2,214.3,75.9,214.3,73.8z"/>
		<path d="M236.6,82.8h3.7l0.4,4.4h0.2c2.8-2.9,5.8-5.1,9.9-5.1c6.2,0,9.1,3.7,9.1,10.6v16.4h-4.5V93.4c0-5-1.7-7.3-6-7.3
			c-3.1,0-5.3,1.6-8.3,4.7v18.4h-4.5V82.8z"/>
		<path d="M268,114c0-2.1,1.5-4.2,4.3-5.9v-0.2c-1.4-0.8-2.7-2.1-2.7-4.3c0-1.7,1.1-3.6,3.1-4.9v-0.2c-1.8-1.4-3.3-3.7-3.3-6.8
			c0-5.7,4.8-9.4,10.4-9.4c1.5,0,2.8,0.2,3.9,0.7h10.9v3.6h-6.8c1.2,1.2,2.2,3.2,2.2,5.3c0,5.6-4.5,9.1-10.2,9.1c-1.4,0-3-0.3-4.4-1
			c-1.3,0.8-2.1,1.8-2.1,3c0,2.1,2,3,5.5,3h5.9c6.8,0,10,1.7,10,6.2c0,4.9-5.7,9.2-14.6,9.2C272.4,121.3,268,118.6,268,114z
			 M290.4,112.8c0-2.5-2-3.2-6-3.2h-5.2c-1.5,0-2.9-0.1-4-0.4c-2.5,1.4-3.4,2.9-3.4,4.4c0,2.8,3,4.5,8.6,4.5
			C286.6,118,290.4,115.5,290.4,112.8z M285.9,91.6c0-3.7-2.7-6.2-6.1-6.2c-3.3,0-6.1,2.5-6.1,6.2c0,3.8,2.8,6.2,6.1,6.2
			C283.2,97.8,285.9,95.4,285.9,91.6z"/>
	</g>
</g>
<text transform="matrix(1 0 0 1 316.1658 106.5862)" class="st0 st1">SUE</text>
<line class="st2" x1="6.8" y1="26.9" x2="293.9" y2="26.9"/>
</svg>
