<svg id="Layer_1" data-name="Layer 1" xmlns="http://www.w3.org/2000/svg" viewBox="0 0 275.4 391.5"><defs><style>.cls-1{fill:#fff;stroke:#231f20;}.cls-1,.cls-3{stroke-miterlimit:10;}.cls-2{fill:#f08080;}.cls-3{stroke:#000;}.cls-4{fill:#ffe0b4;}</style></defs><title>p1winner</title><path class="cls-1" d="M13.7.5h248a13.19,13.19,0,0,1,13.2,13.2V377.8A13.19,13.19,0,0,1,261.7,391H13.7A13.19,13.19,0,0,1,.5,377.8V13.7A13.19,13.19,0,0,1,13.7.5Z" transform="translate(0)"/><polygon class="cls-2" points="56.97 162.96 78.98 227.32 205.37 227.32 227.71 162.96 191.03 173.96 142.34 132.95 93.99 173.96 56.97 162.96"/><polygon class="cls-3" points="89.32 146.29 107.17 162.78 93.99 173.96 75.07 168.34 89.32 146.29"/><path class="cls-3" d="M177.09,162.22,195,146.29l15.37,21.86L191,174Z" transform="translate(0)"/><circle class="cls-4" cx="52.99" cy="153.94" r="8.99"/><circle class="cls-4" cx="231.01" cy="153.94" r="8.99"/><circle class="cls-4" cx="142.34" cy="194.26" r="15"/><rect class="cls-4" x="78.98" y="227.32" width="126.23" height="12"/></svg>