<?xml version="1.0" encoding="utf-8"?>
<!-- Generator: Adobe Illustrator 24.0.2, SVG Export Plug-In . SVG Version: 6.00 Build 0)  -->
<svg version="1.1" id="Layer_1" xmlns="http://www.w3.org/2000/svg" xmlns:xlink="http://www.w3.org/1999/xlink" x="0px" y="0px"
	 viewBox="0 0 275.5 391.6" style="enable-background:new 0 0 275.5 391.6;" xml:space="preserve">
<style type="text/css">
	.st0{fill:#FFFFFF;stroke:#231F20;stroke-miterlimit:10;}
	.st1{font-family:'HelveticaNeue-Bold';}
	.st2{font-size:26.79px;}
	.st3{letter-spacing:-1;}
</style>
<title>playercard21</title>
<path class="st0" d="M13.7,0.5h248c7.3,0,13.2,5.9,13.2,13.2v364.1c0,7.3-5.9,13.2-13.2,13.2h-248c-7.3,0-13.2-5.9-13.2-13.2V13.7
	C0.5,6.4,6.4,0.5,13.7,0.5z"/>
<text transform="matrix(1.01 0 0 1 17 50.8198)" class="st1 st2">Clearing my</text>
<text transform="matrix(1.01 0 0 1 17 88.8198)" class="st1 st2">b</text>
<text transform="matrix(1.01 0 0 1 33.5337 88.8198)" class="st1 st2">r</text>
<text transform="matrix(1.01 0 0 1 43.5732 88.8198)" class="st1 st2">owser histor</text>
<text transform="matrix(1.01 0 0 1 204.3652 88.8198)" class="st1 st2 st3">y</text>
<text transform="matrix(1.01 0 0 1 216.4146 88.8198)" class="st1 st2">.</text>
</svg>
