<?xml version="1.0" encoding="utf-8"?>
<!-- Generator: Adobe Illustrator 24.0.2, SVG Export Plug-In . SVG Version: 6.00 Build 0)  -->
<svg version="1.1" id="Layer_1" xmlns="http://www.w3.org/2000/svg" xmlns:xlink="http://www.w3.org/1999/xlink" x="0px" y="0px"
	 viewBox="0 0 408.8 607.3" style="enable-background:new 0 0 408.8 607.3;" xml:space="preserve">
<style type="text/css">
	.st0{fill:#CA7E68;stroke:#CA7E68;stroke-width:14;stroke-miterlimit:10;}
	.st1{opacity:0.41;fill:#BCBEC0;enable-background:new    ;}
	.st2{fill:#FFFFFF;}
	.st3{fill:#F8B1B3;stroke:#CA7E68;stroke-miterlimit:10;}
	.st4{opacity:0.77;fill:#F1F2F2;enable-background:new    ;}
	.st5{opacity:0.9;fill:#A97C50;enable-background:new    ;}
	.st6{fill:#606060;enable-background:new    ;}
</style>
<path class="st0" d="M40.6,181.2c28.2,119.1,56.3,238.1,84.5,357.2c25.6,5,57,9,92.9,9.2c37.1,0.2,69.5-3.7,95.6-8.6l67.2-357.8
	C267.4,181.2,154,181.2,40.6,181.2z"/>
<path class="st1" d="M190.4,537.7l-54.9-5.4c-5.1-0.5-8.8-5-8.3-10.1l5.4-54.9c0.5-5.1,5-8.8,10.1-8.3l54.9,5.4
	c5.1,0.5,8.8,5,8.3,10.1l-5.4,54.9C200,534.5,195.5,538.2,190.4,537.7z"/>
<path class="st1" d="M186.3,473.6h-55.4c-4.7,0-8.5-3.8-8.5-8.5v-55.4c0-4.7,3.8-8.5,8.5-8.5h55.4c4.7,0,8.5,3.8,8.5,8.5v55.4
	C194.8,469.8,191,473.6,186.3,473.6z"/>
<path class="st1" d="M314.7,522.9L258.5,537c-4.7,1.2-9.4-1.7-10.5-6.3l-14.1-56.3c-1.2-4.7,1.7-9.4,6.3-10.5l56.3-14.1
	c4.7-1.2,9.4,1.7,10.5,6.3l14.1,56.3C322.2,517.1,319.4,521.8,314.7,522.9z"/>
<rect x="-37.7" y="269.5" transform="matrix(0.1502 -0.9887 0.9887 0.1502 -82.1366 460.357)" class="st2" width="528.8" height="17"/>
<path class="st3" d="M19,152.2c126.9,0,253.7,0,380.6,0c3.6,3.3,5.7,9.2,5.5,15.4c-0.3,8.7-5,13.2-5.5,13.6
	c-126.9,0-253.7,0-380.6,0c-0.9-2.3-2.3-6.6-2.6-12.3C16,160.7,18.1,154.6,19,152.2z"/>
<path class="st1" d="M302.3,524.3l-31.9,15.2c-5.5,2.6-12.1,0.3-14.7-5.2l-15.2-31.9c-2.6-5.5-0.3-12.1,5.2-14.7l31.9-15.2
	c5.5-2.6,12.1-0.3,14.7,5.2l15.2,31.9C310.1,515.1,307.8,521.7,302.3,524.3z"/>
<path class="st1" d="M273.2,515.2l-54.5,8.7c-4.4,0.7-8.4-2.3-9.1-6.6l-8.7-54.5c-0.7-4.4,2.3-8.5,6.6-9.1l54.5-8.7
	c4.4-0.7,8.5,2.3,9.1,6.6l8.7,54.5C280.5,510.4,277.5,514.5,273.2,515.2z"/>
<path class="st1" d="M309.4,490h-40c-4.8,0-8.7-3.9-8.7-8.7v-40c0-4.8,3.9-8.7,8.7-8.7h40c4.8,0,8.7,3.9,8.7,8.7v40
	C318.1,486.1,314.2,490,309.4,490z"/>
<path class="st1" d="M238.2,545.5l-37.9-7.7c-5.1-1-8.3-6-7.3-11l7.7-37.9c1-5.1,6-8.3,11-7.3l37.9,7.7c5.1,1,8.3,6,7.3,11
	l-7.7,37.9C248.2,543.2,243.3,546.5,238.2,545.5z"/>
<path class="st4" d="M62.7,274.8c7.2,3.3,18.4,7.1,31.7,6.3c12.5-0.8,17-5,28-8c23.1-6.1,28.1,6.1,59.3,5.9
	c25.3-0.1,27.5-8.2,54.6-6.5c15.9,1,15.4,3.8,29,3.5c21.7-0.4,26.6-7.6,46.2-5.8c11.5,1.1,13.4,3.9,24,3.6
	c11.7-0.4,21.1-4.1,27.5-7.4c-16.4,90.8-32.9,181.7-49.3,272.5c-26.1,4.9-58.5,8.8-95.6,8.6c-36-0.2-67.4-4.3-92.9-9.2
	C104.3,450.5,83.5,362.7,62.7,274.8z"/>
<path class="st1" d="M240.1,541.9L187.6,524c-4.4-1.5-6.8-6.3-5.3-10.8l17.8-52.5c1.5-4.4,6.3-6.8,10.8-5.3l52.5,17.8
	c4.4,1.5,6.8,6.3,5.3,10.8l-17.8,52.5C249.4,541,244.6,543.4,240.1,541.9z"/>
<path class="st1" d="M192.2,513.8l-61.9,9.9c-4.7,0.8-9.2-2.5-9.9-7.2l-9-56.5c-0.8-4.7,2.5-9.2,7.2-10l61.9-9.9
	c4.7-0.8,9.2,2.5,9.9,7.2l9,56.5C200.1,508.6,196.9,513.1,192.2,513.8z"/>
<path class="st1" d="M161,446.7l-37.9,12.9c-4.5,1.5-9.5-0.9-11-5.4l-12.9-37.9c-1.5-4.5,0.9-9.5,5.4-11l37.9-12.9
	c4.5-1.5,9.5,0.9,11,5.4l12.9,37.9C168,440.2,165.5,445.1,161,446.7z"/>
<path class="st1" d="M325,458.9l-54.9,18.7c-4.5,1.5-9.5-0.9-11-5.4l-18.7-54.9c-1.5-4.5,0.9-9.5,5.4-11l54.9-18.7
	c4.5-1.5,9.5,0.9,11,5.4l18.7,54.9C332,452.5,329.6,457.4,325,458.9z"/>
<path class="st5" d="M40.6,181.2c113.4,0,226.8,0,340.3,0c-6,28.4-11.9,56.8-17.9,85.3c-4.4,2.2-16,7.6-27.5,7.4
	c-6.5-0.1-11-1.1-11-1.1c-6.6-1.2-9.2-3-18-2.9c-16.1,0.2-21.5,6-41.2,6.2c-14.9,0.1-16.5-2.7-32-3.5c-25.3-1.2-27.3,6.1-51.6,6.4
	c-30.5,0.4-38.8-11-59.3-5.9c-9.5,2.4-13,5.3-19,6.9c-0.7,0.2-4.5,0.9-9,1.1c-13.2,0.7-24.9-3.4-31.7-6.3
	C55.4,243.6,48,212.4,40.6,181.2z"/>
<polygon class="st6" points="54,286.7 372,286.7 349,415.6 85,415.6 "/>
</svg>
